<?xml version="1.0" encoding="utf-8"?>
<!-- Generator: Adobe Illustrator 27.8.1, SVG Export Plug-In . SVG Version: 6.00 Build 0)  -->
<svg version="1.1" id="Layer_1" xmlns="http://www.w3.org/2000/svg" xmlns:xlink="http://www.w3.org/1999/xlink" x="0px" y="0px"
	 viewBox="0 0 24 24" style="enable-background:new 0 0 24 24;" xml:space="preserve">
<style type="text/css">
	.st0{fill:#F9FAFB;}
</style>
<path class="st0" d="M2.4,21.6c-0.7,0-1.2-0.2-1.7-0.7c-0.5-0.5-0.7-1-0.7-1.7V4.8c0-0.7,0.2-1.2,0.7-1.7s1-0.7,1.7-0.7h19.2
	c0.7,0,1.2,0.2,1.7,0.7s0.7,1,0.7,1.7v14.3c0,0.7-0.2,1.2-0.7,1.7c-0.5,0.5-1,0.7-1.7,0.7C21.6,21.6,2.4,21.6,2.4,21.6z M12,13.2
	l-9.6-6v12h19.2v-12L12,13.2z M12,10.8l9.6-6H2.4L12,10.8z M4,6.8v-2v12V6.8z"/>
</svg>
